<svg xmlns:xlink="http://www.w3.org/1999/xlink" width="704" xmlns="http://www.w3.org/2000/svg" height="977" id="screenshot-c6746f7e-7c5d-80c5-8001-9d9748e8b734" viewBox="0 0 704 977" style="-webkit-print-color-adjust: exact;" fill="none" version="1.1"><g id="shape-c6746f7e-7c5d-80c5-8001-9d9748e8b734" rx="0" ry="0"><g id="shape-a6221abb-b823-80c4-8001-9d7e8dd3529f"><defs><linearGradient id="fill-color-gradient_2d7e82c9-b417-80e7-8001-9da5619860c1_0" x1="0.5132569976451827" y1="0.40542810052738343" x2="0.8652656283308648" y2="0.2742498427900097" gradientTransform=""><stop offset="0" stop-color="#3a8c7b" stop-opacity="1"/><stop offset="1" stop-color="#35786a" stop-opacity="0.8374999201297836"/></linearGradient><pattern patternUnits="userSpaceOnUse" x="0.0000015586250583510264" y="0.000001005154700806088" height="976.9999983442644" width="700.99999769032" data-loading="false" id="fill-0-2d7e82c9-b417-80e7-8001-9da5619860c1"><g><rect width="700.99999769032" height="976.9999983442644" style="fill: url(&quot;#fill-color-gradient_2d7e82c9-b417-80e7-8001-9da5619860c1_0&quot;);"/></g></pattern></defs><g id="fills-a6221abb-b823-80c4-8001-9d7e8dd3529f"><rect rx="0" ry="0" x="0.0000015586250583510264" y="0.000001005154700806088" transform="matrix(1,0,0,-1,0.000006,977.000003)" width="700.99999769032" height="976.9999983442644" fill="url(#fill-0-2d7e82c9-b417-80e7-8001-9da5619860c1)"/></g></g><g id="shape-a6221abb-b823-80c4-8001-9d8a9cdd6f46"><g id="fills-a6221abb-b823-80c4-8001-9d8a9cdd6f46"><path rx="0" ry="0" d="M649,144L421,259.923L699.843,639.345L649,144Z"/></g><g id="strokes-a6221abb-b823-80c4-8001-9d8a9cdd6f46"><g class="stroke-shape"><path rx="0" ry="0" d="M649,144L421,259.923L699.843,639.345L649,144Z" style="fill: none; stroke-width: 2; stroke: rgb(255, 255, 255); stroke-opacity: 1;"/></g></g></g><g id="shape-a6221abb-b823-80c4-8001-9d7ffe4d840c"><g id="fills-a6221abb-b823-80c4-8001-9d7ffe4d840c"><path rx="0" ry="0" d="M700,79L438,216L700,638L700,79Z"/></g><g id="strokes-a6221abb-b823-80c4-8001-9d7ffe4d840c"><g class="stroke-shape"><path rx="0" ry="0" d="M700,79L438,216L700,638L700,79Z" style="fill: none; stroke-width: 2; stroke: rgb(255, 255, 255); stroke-opacity: 1;"/></g></g></g><g id="shape-a6221abb-b823-80c4-8001-9d8a9cddbafd"><g id="fills-a6221abb-b823-80c4-8001-9d8a9cddbafd"><path rx="0" ry="0" d="M703,124L569,249.971L703,638L703,124Z"/></g><g id="strokes-a6221abb-b823-80c4-8001-9d8a9cddbafd"><g class="stroke-shape"><path rx="0" ry="0" d="M703,124L569,249.971L703,638L703,124Z" style="fill: none; stroke-width: 2; stroke: rgb(255, 255, 255); stroke-opacity: 1;"/></g></g></g><g id="shape-a6221abb-b823-80c4-8001-9d8038f9dacb"><g id="fills-a6221abb-b823-80c4-8001-9d8038f9dacb"><path rx="0" ry="0" d="M700,124L532,235.021L700,577L700,124Z"/></g><g id="strokes-a6221abb-b823-80c4-8001-9d8038f9dacb"><g class="stroke-shape"><path rx="0" ry="0" d="M700,124L532,235.021L700,577L700,124Z" style="fill: none; stroke-width: 2; stroke: rgb(255, 255, 255); stroke-opacity: 1;"/></g></g></g></g></svg>