<svg xmlns:xlink="http://www.w3.org/1999/xlink" width="381.807" xmlns="http://www.w3.org/2000/svg" height="257.958" id="screenshot-b6de7595-666d-8059-8001-7cfd65f533db" viewBox="0 -0 381.807 257.958" style="-webkit-print-color-adjust: exact;" fill="none" version="1.1"><g id="shape-b6de7595-666d-8059-8001-7cfd65f533db" height="257.95761mm" width="381.80728mm" rx="0" ry="0" style="fill: rgb(0, 0, 0);"><g id="shape-b6de7595-666d-8059-8001-7cfd65f90346"><g id="fills-b6de7595-666d-8059-8001-7cfd65f90346"><path color="#000" overflow="visible" rx="0" ry="0" d="M273.124,2.972C272.308,2.969,271.453,2.994,270.557,3.051C256.109,3.967,255.266,17.723,259.222,19.389C259.222,19.389,249.124,26.883,244.584,37.676C240.044,48.468,243.783,60.681,254.173,68C269.364,76.652,281.345,70.863,295.207,53.537C309.069,36.212,283.675,18.734,283.675,18.734C289.774,15.05,289.706,3.04,273.124,2.972ZZM326.667,45.041C320.646,44.989,313.923,50.09,309.807,55.791C304.539,63.088,302.646,70.778,310.657,79.736C336.401,105.837,334.97,121.954,336.573,132.921C338.175,143.889,343.054,151.951,365.971,148.455C388.888,144.96,375.159,94.025,366.347,77.289C357.535,60.554,338.356,50.613,331.486,46.396C329.983,45.474,328.353,45.055,326.667,45.041ZZM246.502,91.312L234.412,103.328L263.325,117.748L268.496,105.076ZM135.416,109.535L125.409,121.034L110.797,122.347L102.239,134.511L78.22,134.765L67.83,144.464L56.172,144.084L58.398,165.751L42.632,170.314L43.634,190.487L24.721,198.348L27.505,204.483L2.251,219.552L30.145,223.261L20.175,230.377C54.909,231.308,55.524,229.875,55.524,229.875L60.462,230.984L84.641,225.068L97.109,231.566L102.393,229.261L112.443,237.249L104.38,243.219C114.698,247.157,126.51,250.587,141.7,252.867L151.558,237.747L131.337,232.049L153.776,227.414L162.299,233.912L178.148,227.351L193.363,235.687C197.183,231.795,207.594,232.881,214.947,231.659C216.967,235.021,217.598,240.089,223.076,241.014C234.654,242.753,244.992,239.876,255.948,239.3L258.624,231.344L284.264,233.817L293.047,228.983L307.218,229.298L294.091,220.821L301.803,212.326L267.73,206.629L264.094,187.59L249.213,184.902L248.548,179.204L227.481,176.191L240.14,167.608L228.325,164.401L232.131,156.611C228.191,152.555,224.3,151.02,220.222,139.836L207.42,139.833L212.614,121.214L188.594,120.559L179.933,116.825L175.206,121.84L152.821,117.745C150.95,123.053,141.218,112.272,135.416,109.535ZZM61.739,239.746L33.635,240.301C38.597,246.829,45.607,252.157,53.599,256.91C62.704,256.723,71.714,256.211,80.064,253.457Z" style="fill: rgb(255, 255, 255);"/></g></g><g id="shape-b6de7595-666d-8059-8001-7cfd662fb1c3"><g id="fills-b6de7595-666d-8059-8001-7cfd662fb1c3"><path rx="0" ry="0" d="M33.983,244.053C31.997,242.338,31.19,240.487,31.824,239.098C32.541,236.877,41.979,238.049,44.57,238.041C50.423,238.359,56.795,237.592,62.373,237.581C65.757,237.581,67.023,238.283,66.152,239.676C65.757,243.52,76.017,247.588,78.756,250.037C79.537,250.8,80.681,251.491,81.299,251.574C83.813,251.911,83.355,253.498,80.355,254.847C76.041,256.789,70.063,257.66,59.838,257.838L52.938,257.958C44.855,253.965,40.412,249.63,33.983,244.053ZZM67.755,253.193C75.261,252.262,76.119,251.927,73.804,250.832C68.102,247.971,64.937,245.465,60.79,241.648L49.742,241.609C43.666,241.588,38.6,241.722,38.486,241.908C38.055,242.604,44.554,248.656,47.897,250.671C52.934,253.707,58.21,254.377,67.755,253.193ZZM138.464,253.569C134.344,252.545,129.987,251.813,125.937,251.23C116.405,249.862,109.797,248.103,106.618,246.087C105.519,245.39,104.138,244.854,103.55,244.897C99.472,243.023,104.621,240.371,105.894,239.772C108.966,238.357,110.049,237.288,109.005,236.703C108.029,236.157,103.786,232.8,103.639,232.458C102.729,230.769,102.076,231.041,101.067,231.782C97.981,234.059,95.751,233.609,89.262,229.402C86.274,227.465,85.188,226.972,84.358,227.175C83.772,227.319,82.332,227.604,81.16,227.81C74.891,228.59,68.454,230.88,62.514,232.066C59.926,232.576,59.568,232.56,58.848,231.909C58.067,231.202,49.884,227.788,48.971,227.788C47.867,227.788,40.834,223.663,40.207,222.648C35.521,222.065,31.821,227.076,26.785,227.788C26.552,227.788,26.361,228.103,26.361,228.488C26.361,229.124,27.184,229.16,35.434,228.882C45.139,228.555,46.831,228.708,46.831,229.914C46.831,231.479,45.482,231.898,38.941,232.363C33.134,232.775,25.385,232.766,22.424,232.342C16.003,230.939,18.504,227.968,22.63,225.822C23.744,225.253,24.655,224.638,24.655,224.455C24.655,223.933,15.079,223.616,10.016,222.902C7.602,222.562,1.8,222.714,0.58,221.412C-0.521,220.195,-0.076,219.2,2.108,217.997C7.592,214.819,9.434,213.693,12.138,212.302C12.599,211.841,14.847,211.961,14.847,212.446C14.847,212.686,13.574,213.79,12.017,214.898C6.527,218.807,6.18,219.331,8.985,219.475C15.4,220.386,21.549,221.113,27.709,221.609C32.443,221.76,34.176,221.037,37.022,217.34C38.143,215.99,39.831,216.574,42.566,219.259C46.859,223.538,53.426,225.41,58.035,227.556C59.541,228.272,59.802,228.277,62.086,227.644C64.188,227.061,75.407,224.671,78.921,224.058C80.154,223.842,80.48,222.95,79.537,222.372C78.822,221.933,75.403,217.018,75.403,216.428C75.403,215.52,77.006,214.568,78.537,214.568C80.236,214.568,80.319,214.677,81.398,218.301C81.864,219.868,82.153,220.174,83.519,220.542C84.388,220.776,85.596,221.358,86.203,221.835C93.869,227.866,99.33,229.615,101.905,226.865C104.625,225.095,106.586,225.621,107.394,228.495C108.134,231.187,108.816,232.202,110.931,233.757L112.674,235.039C114.222,233.492,117.482,230.432,117.621,228.488C117.621,226.495,120.114,226.598,125.937,228.833C128.587,229.851,129.161,229.931,131.054,229.551C135.244,228.709,137.483,228.203,139.658,227.606C141.616,227.068,144.617,226.791,147.32,226.899C148.385,226.941,148.966,228.082,148.319,228.862C148.073,229.158,147.35,229.505,146.712,229.631C143.339,230.303,137.827,231.768,137.488,232.084C137.263,232.294,137.576,232.629,138.231,232.877C139.817,233.481,147.625,235.097,150.565,235.43C155.397,235.979,155.512,237.513,151.213,244.049C145.729,252.833,142.905,254.318,138.464,253.569ZZM143.506,246.696C145.916,244.229,147.745,240.672,148.265,239.881C149.611,237.837,148.09,238.044,146.235,237.872C142.221,237.499,136.143,236.019,125.937,232.931C123.591,232.222,121.544,231.638,121.387,231.634C121.23,231.629,120.673,232.346,120.149,233.225C118.7,235.883,113.966,240.564,109.519,243.188C109.519,244.867,128.622,248.773,138.219,249.057L141.118,249.142ZM345.193,246.337C342.306,242.784,345.325,241.129,348.36,240.6C354.695,238.868,360.271,237.108,364.631,232.544C363.79,204.294,365.127,178.128,363.186,152.349C360.037,153.639,353.158,151.557,351.05,152.003C349.333,166.529,347.833,189.894,345.583,209.451C345.506,210.037,345.219,213.683,344.945,217.553C344.091,229.601,344.096,229.576,342.312,230.531C340.874,231.301,340.532,231.318,337.138,230.79C326.931,231.69,318.971,237.974,314.32,233.097C311.277,228.152,317.913,228.193,319.757,228.112C324.636,228.306,327.907,226.119,332.569,225.435C336.551,224.892,336.225,225.171,337.789,220.965C340.558,198.76,344.477,177.756,345.129,156.94L345.365,148.993C335.265,145.729,333.283,139.043,333.364,130.892C332.25,120.087,330.599,111.08,326.478,102.667C319.15,113.926,305.367,122.295,294.597,126.396C285.958,129.61,276.69,129.969,267.944,126.283C264.094,124.595,263.707,124.561,262.018,125.762C255.146,128.533,243.183,125.266,237.864,119.93C235.235,117.274,236.429,115.413,235.526,112.468L234.782,110.103L235.925,108.604L237.069,107.104L236.088,106.692C235.549,106.465,234.295,106.075,233.302,105.824C231.155,105.282,230.41,104.214,231.109,102.68C235.338,98.161,240.945,94.551,243.678,90.365C244.77,88.658,247.008,85.819,248.169,88.659C249.041,90.868,249.263,91.09,251.991,92.466C254.89,93.928,258.164,94.454,260.745,93.872C262.69,93.433,265.216,94.059,266.149,95.211C267.16,96.459,266.943,97.287,265.315,98.384C264.575,98.882,264.097,99.465,264.251,99.678C264.406,99.892,265.78,100.712,267.304,101.501C271.09,103.46,271.437,103.832,270.875,105.321C270.448,106.453,270.521,106.578,272.168,107.528C276.053,108.837,284.16,108.017,288.504,106.42C300.932,101.853,305.958,95.462,311.699,85.29C308.711,81.288,304.019,77.215,302.852,73.114C299.785,62.34,309.993,50.406,318.48,45.431C323.218,42.654,326.374,43.085,331.698,44.193C340.341,47.251,352.08,56.205,357.526,62.257C373.29,77.443,378.684,100.913,381.592,114.631C382.313,128.775,381.921,142.752,369.029,149.55C367.963,150.091,367.936,151.522,368.746,164.461C371.347,190.656,369.459,208.658,371.946,233.994C372.266,235.953,372.199,236.265,371.203,237.449C366.34,240.168,360.65,241.629,354.948,244.543C351.544,245.661,346.932,248.065,345.193,246.337ZZM361.021,147.346C362.448,146.964,362.555,145.745,361.753,139.01C360.738,130.493,360.738,130.517,361.864,130.095C364.04,129.278,366.296,131.421,366.799,138.178C366.893,139.437,367.191,142.726,367.67,144.631C377.733,139.65,376.888,125.129,376.63,118.497C376.017,101.104,363.542,76.594,351.451,64.558C345.173,58.987,329.125,42.809,320.389,49.306C313.01,55.494,304.793,63.845,309.312,73.319C311.33,77.552,312.174,78.582,320.139,86.536C323.689,90.081,325.095,91.236,325.357,90.823C327.976,84.341,327.066,71.383,324.851,65.614C323.701,62.426,322.657,58.931,326.62,58.915C330.089,58.901,331.698,61.068,331.698,65.712C333.391,76.477,335.148,84.969,330.6,95.382C330.024,96.597,330.061,96.847,331.137,99.016C341.245,117.358,337.602,123.864,339.435,135.675C340.448,142.209,352.754,149.378,361.021,147.346ZZM294.768,120.57C306.616,115.296,315.876,110.066,322.402,96.829C320.004,94.22,317.334,91.421,315.126,89.209C309.951,96.977,301.855,105.151,293.262,108.98C286.356,112.058,277.327,114.25,270.42,110.523C269.575,110.024,268.751,109.771,268.587,109.959C268.424,110.148,267.743,111.645,267.074,113.287C266.405,114.929,265.608,116.65,265.302,117.113C264.538,118.269,264.603,118.617,265.584,118.617C266.045,118.617,267.052,119.158,267.822,119.819C275.471,125.705,288.531,123.345,294.768,120.57ZZM262.821,113.516C262.968,113.056,263.844,111.302,264.769,109.619C265.694,107.936,266.451,106.41,266.451,106.228C266.451,105.874,260.645,102.412,260.05,102.412C259.854,102.412,259.111,101.922,258.399,101.323L257.104,100.233L254.996,100.982C252.169,101.986,249.973,101.478,248.859,99.563C248.188,98.41,248.153,98.071,248.625,97.299C249.108,96.509,249.069,96.307,248.327,95.758C246.261,94.226,245.74,94.431,241.92,98.286C239.932,100.292,238.306,102.21,238.306,102.548C238.306,103.087,243.953,106.25,244.914,106.25C245.113,106.25,245.627,106.569,246.057,106.959C246.488,107.348,246.969,107.538,247.126,107.381C247.283,107.223,247.11,106.857,246.74,106.566C244.636,104.911,245.988,102.412,248.987,102.412C250.322,102.412,250.96,102.678,251.802,103.585C252.74,104.596,255.473,108.911,256.857,111.568C258.043,113.844,262.278,115.227,262.821,113.516ZZM240.29,111.203C240.524,110.765,240.597,110.287,240.451,110.14C240.078,109.768,239.04,110.703,239.04,111.412C239.04,112.26,239.791,112.134,240.29,111.203ZZM217.119,239.372C215.193,237.228,213.998,235.742,213.998,233C209.11,233.453,202.947,233.181,198.433,234.722C197.729,234.981,196.588,235.657,195.898,236.224C194.254,237.573,192.572,237.309,189.921,235.286C188.075,233.919,185.794,233.028,184.169,231.946C178.791,228.344,179.476,228.502,176.38,230.146C172.747,232.322,167.897,232.554,164.661,235.026C162.6,236.648,161.378,236.222,157.961,232.692C156.369,230.627,148.599,225.658,148.826,223.436C148.945,222.601,149.183,222.475,150.45,222.579C154.387,223.623,156.979,227.295,160.564,229.219C161.315,229.605,162.371,229.912,162.91,229.903C164.464,229.874,173.065,227.527,173.61,226.982C173.983,226.608,173.679,226.101,172.358,224.893C171.401,224.013,169.26,221.466,167.963,219.79C166.153,217.904,168.757,216.478,170.714,216.372C174.679,216.156,188.601,214.974,192.218,214.546C194.416,214.078,197.014,214.433,199.038,213.433C200.254,212.816,200.815,213.056,203.438,215.317C206.635,218.073,209.867,220.087,214.893,222.456C217.567,223.717,219.816,225.042,219.89,225.4C220.094,226.382,218.027,226.715,215.53,226.103C210.822,224.95,201.654,219.864,199.355,217.131C198.292,215.868,198.2,215.841,197.217,216.485C191.329,218.536,183.956,218.988,177.537,219.496C175.426,219.657,173.552,219.874,173.373,219.979C178.444,225.048,189.247,231.136,193.388,231.319C195.825,231.392,199.638,230.309,201.631,230.032C203.625,229.755,208.368,229.416,212.171,229.279C217.964,229.071,219.297,229.139,220.381,229.7C222.121,230.6,222.01,231.457,220.075,232.052C219.196,232.322,218.213,232.628,217.891,232.731C217.495,233.688,220.181,236.27,221.141,236.925C223.568,238.513,232.174,239.114,243.085,238.458C253.765,237.816,254.627,237.661,255.002,236.311C255.512,234.476,256.05,230.914,255.89,230.434C255.791,230.136,255.058,230.264,253.809,230.8C251.402,231.832,250.673,231.841,250.673,230.839C250.947,228.688,257.18,226.181,260.719,223.765C261.5,223.188,261.425,223.101,259.415,222.245C253.988,221.17,242.002,214.113,240.218,215.182C238.022,216.118,234.908,220.384,232.8,220.539C231.793,220.539,230.203,219.135,230.203,218.245C232.351,215.299,234.994,213.531,237.729,210.837C239.072,209.5,241.426,209.554,243.273,210.963C245.974,213.023,255.942,217.327,265.598,220.602C271.641,223.319,266.723,225.164,263.313,226.483C261.225,227.378,261.507,226.825,258.984,234.964L258.412,236.81C259.216,237.134,260.952,236.977,260.775,238.569C260.775,240.568,251.853,241.798,238.093,242.535C230.226,243.271,223.067,244.378,217.119,239.372ZZM273.056,233.968C265.409,233.743,263.45,233.56,262.434,232.975C259.631,232.193,262.166,229.348,263.393,229.704C264.816,230.254,268.278,230.763,272.121,230.988C274.882,230.733,283.544,232.898,285.355,231.299C285.865,230.838,287.622,229.571,289.262,228.484C292.176,226.553,293.589,226.116,294.405,226.895C294.751,227.226,297.767,227.809,302.393,228.442C304.521,228.733,303.198,227.893,300.035,226.944C298.334,226.434,296.196,225.426,295.284,224.703C293.934,223.632,293.499,223.481,292.939,223.889C289.599,226.317,288.345,227.006,288.11,225.357C287.999,224.581,287.701,224.402,286.52,224.402C283.602,224.402,274.441,222.178,270.603,220.895C266.237,219.435,265.073,218.667,265.26,217.364C265.439,216.112,267.863,215.952,269.837,217.06C275.093,220.035,281.202,220.347,286.808,222.21L289.266,223.042C291.237,220.208,297.566,215.368,298.008,213.485C298.008,212.78,297.285,212.576,293.531,212.226C285.939,211.518,267.189,208.239,264.634,207.171C263.026,206.5,262.743,205.344,263.889,204.124C264.609,203.358,264.722,202.954,264.392,202.337C264.166,196.61,263.667,193.86,262.376,190.139C262.029,189.235,260.345,188.592,257.587,188.309C254.419,187.984,252.897,187.386,252.564,186.334C252.179,185.121,252.92,184.589,255.024,184.569C259.304,184.527,264.257,185.837,265.442,187.324C266.186,188.257,267.038,191.21,266.944,192.532C266.806,194.487,267.663,200.419,268.438,202.878L269.157,205.158C277.487,206.986,286.219,208.619,293.744,209.634C297.614,210.149,301.197,210.797,301.705,211.074C302.214,211.35,302.758,212.157,302.914,212.867C303.175,214.058,302.94,214.403,299.887,217.312C296.706,220.341,296.601,220.503,297.212,221.423C297.571,221.964,299.51,223.098,301.66,224.026C309.076,227.588,309.389,230.034,306.644,230.712C305.899,231.106,297.131,230.998,294.016,230.555C292.728,230.372,291.939,230.569,290.391,231.459C289.304,232.085,288.126,232.837,287.774,233.13C283.311,236.361,277.471,234.137,273.056,233.968ZZM104.614,220.097C102.897,219.73,99.091,217.774,96.684,216.02C94.333,214.307,90.102,209.329,88.623,206.537C87.19,203.833,85.861,202.2,84.341,201.276C82.755,200.311,82.581,198.504,84.038,198.139C85.407,197.796,86.108,197.809,91.738,198.278C94.507,198.509,97.145,198.6,97.602,198.481C98.348,198.285,98.431,197.867,98.431,194.287C98.431,191.651,98.258,190.204,97.918,189.994C97.636,189.82,94.71,189.636,91.415,189.586C84.833,189.486,83.17,189.315,76.971,188.098C74.667,187.646,72.418,187.275,71.975,187.275C70.981,187.275,70.469,188.195,69.677,191.4C68.768,196.371,66.572,200.758,66.459,205.924C66.446,208.415,66.363,208.357,70.499,208.741C72.572,208.933,74.068,208.812,82.779,207.747C88.475,207.05,90.491,207.633,88.01,209.259C86.697,210.12,82.635,211.074,78.198,211.566C67.115,212.794,65.162,212.953,64.18,212.707C62.194,212.208,61.863,211.492,62.045,208.095C62.842,200.243,64.617,197.771,66.595,189.621C67.414,186.194,67.889,185.08,68.935,184.138C69.906,183.263,69.812,183.253,78.601,185.121C84.359,186.345,91.102,186.993,95.212,186.718C99.016,186.464,102.016,187.187,103.152,188.63C103.762,189.407,103.751,189.804,103.031,193.123C102.597,195.125,102.033,197.154,101.778,197.631C103.158,198.891,108.774,198.027,112.555,197.25C113.453,196.438,115.67,196.349,116.563,197.09C116.886,197.359,117.373,198.283,117.645,199.144C119.873,205.065,122.904,208.683,127.624,210.967C131.642,212.896,133.274,214.163,132.777,214.968C132.356,215.648,131.295,215.525,128.029,214.414C120.621,211.952,117.479,207.76,114.803,203.128C113.378,200.658,113.153,200.455,112.129,200.717C109.28,201.449,105.333,201.758,98.751,201.766C91.626,201.775,91.608,201.777,91.621,202.734C91.644,204.364,94.03,208.615,96.479,211.387C99.157,214.418,102.458,215.476,104.024,216.425C104.549,216.743,105.68,216.927,107.222,216.811C110.301,216.58,113.785,217.293,119.815,216.673C124.597,216.182,127.003,216.4,127.003,217.325C127.003,217.984,124.332,218.916,120.18,219.707C117.181,220.277,106.695,220.54,104.614,220.097ZZM149.38,219.103C148.917,218.783,148.082,218.378,147.523,218.204C144.565,217.28,137.95,212.406,137.033,210.476C136.374,209.086,136.37,208.894,136.992,208.207C137.366,207.794,139.036,207.127,140.705,206.724C149.27,203.829,158.644,200.718,165.961,197.867C168.485,196.867,170.496,196.307,170.996,196.466C171.986,196.78,172.633,198.294,172.633,200.295C172.633,202.265,173.667,205.163,175.393,208.028C177.025,210.738,176.948,211.583,175.069,211.583C173.253,211.583,170.484,208.555,169.279,205.253C168.778,203.878,168.365,202.485,168.362,202.157C168.346,200.723,167.691,200.383,166.316,201.094C165.595,201.467,163.308,202.322,161.236,202.994C154.516,205.173,149.175,207.444,142.822,209.936L141.797,210.333L142.989,211.577C143.645,212.262,146.121,213.908,148.492,215.236C150.863,216.564,152.943,217.869,153.115,218.135C153.507,218.744,152.289,219.686,151.11,219.686C150.621,219.686,149.842,219.424,149.38,219.103ZZM256.703,214.675C256.486,214.264,256.017,212.969,255.662,211.796C253.862,205.844,252.786,204.954,245.625,203.495C238.275,201.997,231.841,199.308,232.066,197.829C232.367,195.842,233.802,195.772,237.733,197.553C249.761,200.34,250.945,199.231,256.11,201.71C257.565,202.5,258.204,203.796,258.949,207.471C259.757,211.459,259.819,214.206,259.116,214.909C258.372,215.654,257.16,215.536,256.703,214.675ZZM188.097,212.372C187.684,211.854,186.562,210.554,185.606,209.481C182.588,206.099,180.334,201.872,179.076,197.236C178.596,195.469,177.401,194.663,175.972,195.143C172.294,195.68,169.058,195.636,165.17,196.106C161.106,196.613,159.413,196.13,159.413,194.462C159.413,193.552,160.931,192.819,162.817,192.819C164.226,192.819,165.383,192.442,165.383,191.983C165.383,191.807,164.568,191.133,163.571,190.485C161.566,189.18,158.651,185.722,157.485,183.265C155.93,179.617,159.192,181.13,160.906,180.501C174.308,178.03,181.086,174.413,191.08,175.254C192.324,175.494,191.938,176.891,190.437,177.581C189.675,177.932,186.46,178.717,183.294,179.325C163.541,183.116,162.223,183.441,162.082,184.549C161.954,185.56,162.49,186.219,165.17,188.351C166.343,189.284,167.794,190.557,168.395,191.18C169.451,192.274,169.614,192.305,173.299,192.116C175.395,192.008,177.791,191.768,178.622,191.582C180.552,191.15,181.933,191.662,182.195,192.907C182.309,193.445,182.606,194.941,182.855,196.231C183.506,199.604,184.898,202.898,186.889,205.778C190.559,211.087,190.991,212.166,189.717,212.848C189.004,213.23,188.716,213.145,188.097,212.372ZZM30.412,209.382C27.672,207.364,24.099,202.696,22.735,199.493C21.906,197.507,22.326,196.807,24.592,196.402C26.306,196.095,27.528,195.582,35.192,191.952C40.792,189.299,40.575,189.536,41.021,185.57C41.274,183.313,40.286,172.796,39.62,170.654C38.889,168.304,39.801,167.714,44.489,167.499C48.387,167.321,51.371,166.689,57.013,164.848C60.708,163.642,61.872,163.572,62.65,164.509C63.139,165.099,63.085,165.308,62.276,165.963C61.245,166.798,52.037,169.943,48.436,170.69C47.201,170.946,45.731,171.447,45.168,171.804C43.764,171.952,44.05,173.01,44.148,175.164C44.3,178.504,44.82,185.219,44.972,185.978C45.228,187.257,45.345,187.338,46.572,187.094C47.301,186.949,48.546,186.369,49.34,185.805C50.549,184.946,50.928,184.861,51.685,185.282C53.323,186.191,54.144,187.028,54.699,188.356C55,189.077,56.039,190.712,57.007,191.99C58.822,194.383,59.182,195.556,58.216,195.926C57.13,196.343,55.075,195.03,52.692,192.396L50.275,189.725L47.485,190.91C41.801,194.017,35.761,196,30.493,198.982C28.028,200.368,27.726,200.986,28.759,202.524C30.069,204.956,32.725,207.622,32.469,208.972C32.206,209.978,31.684,210.082,30.412,209.382ZZM224.233,200.629C219.643,197.907,214.812,193.555,212.611,190.158C211.32,188.342,211.866,187.583,210.191,189.123C202.659,196.045,199.455,198.373,196.621,198.985C195.474,199.232,195.235,199.156,195.235,198.543C195.235,197.644,208.131,184.819,209.593,184.263C211.645,183.483,215.212,184.979,215.264,186.642C215.311,188.128,218.948,193.204,220.842,194.425C222.896,195.75,228.49,201.015,228.252,201.4C227.824,202.093,226.166,201.775,224.233,200.629ZZM245.889,196.764C244.67,191.489,245.907,186.967,244.91,181.466C244.628,180.169,242.97,179.683,237.879,179.406C228.956,178.921,226.445,178.444,224.766,176.914C223.064,174.671,223.836,174.035,226.03,173.96C229.631,172.939,231.406,170.734,234.716,168.699C235.687,168.116,235.154,167.232,233.831,167.232C232.856,167.232,223.923,165.559,219.969,164.636C214.988,163.473,214.132,163.201,213.015,162.426C212.215,161.872,211.862,161.294,211.949,160.683C212.14,159.343,213.89,159.311,217.745,160.577C220.987,161.641,228.109,163.055,228.469,162.706C228.571,162.608,228.427,162.3,228.149,162.023C227.53,161.403,227.494,159.155,228.079,157.615C228.466,156.598,228.335,156.277,226.891,154.709C223.376,151.324,220.661,146.846,218.293,142.515C217.796,142.249,213.869,142.072,208.469,142.072C201.728,142.072,199.114,141.923,198.045,141.476C196.113,140.669,195.753,139.962,196.83,139.09C197.602,138.465,198.895,138.39,207.45,138.477C214.791,138.551,217.456,138.438,218.267,138.018C220.745,136.737,223.12,138.451,223.794,142.007C225.038,146.314,228.753,152.212,232.655,154.015C234.078,154.645,234.468,155.043,234.468,155.865C234.468,157.465,231.38,162.264,230.166,162.55C228.728,162.89,229.338,163.134,234.894,164.445C240.027,165.655,241.717,166.607,241.717,168.288C241.717,168.948,241.165,169.462,239.692,170.177C237.29,171.24,235.278,173.002,232.869,174.016C231.498,174.579,230.984,175.574,232.016,175.668C232.309,175.695,236.003,175.975,240.225,176.292C244.447,176.609,248.33,177.104,248.855,177.393C249.887,177.961,250.497,179.611,250.078,180.703C250.044,186.841,250.112,192.001,248.523,196.918C247.983,198.338,246.521,198.253,245.889,196.764ZZM119.185,189.123C118.582,188.521,118.953,187.072,120.244,184.977C122.472,181.364,122.97,180.368,124.108,177.254C126.649,170.299,127.353,166.914,126.34,166.525C125.555,166.223,125.539,164.505,126.316,163.86C126.642,163.589,128.417,163.194,130.261,162.981C135.15,162.417,137.051,162.105,140.877,161.237C145.846,160.11,148.712,160.048,149.446,161.052C150.215,162.103,150.19,164.616,149.391,166.527C148.629,168.351,148.599,168.657,149.217,168.274C149.473,168.116,152.169,168.225,155.208,168.518C159.212,168.902,160.985,169.252,161.647,169.788C162.648,170.535,162.521,171.251,161.46,171.819C160.924,172.106,158.508,171.676,155.935,171.806C151.589,172.027,151.166,171.978,149.995,171.111C148.705,170.157,147.899,170.227,147.899,171.293C147.899,172.669,144.782,178.305,142.981,180.184C140.935,182.32,139.502,182.67,139.681,180.991C139.734,180.485,140.621,178.19,141.652,175.891C143.635,171.467,145.982,164.321,145.583,163.922C141.891,164.835,135.769,165.836,132.033,166.698C131.634,167.045,131.094,168.411,130.835,169.733C129.728,175.37,127.484,180.925,124.29,185.934C122.431,188.85,120.264,190.203,119.185,189.123ZZM94.166,179.177C94.166,178.945,93.196,177.684,92.009,176.373C90.823,175.063,89.911,173.689,89.983,173.319C90.284,171.786,96.592,169.182,107.664,166.02L111.864,164.82L112.103,163.148C111.748,159.438,116.211,155.198,117.578,150.846C117.268,150.532,111.288,153.007,110.343,153.84C109.111,154.927,107.265,155.01,106.214,154.025C103.668,151.956,108.43,150.098,109.549,149.59C112.261,148.578,119.807,144.831,122.049,146.988C122.646,147.703,124.607,148.846,121.27,153.297C120.739,154.08,119.733,155.76,119.034,157.032C116.863,160.984,116.579,161.447,115.702,162.473L114.849,163.47L116.45,163.171C119.219,162.654,120.65,163.695,122.684,167.704C124.401,171.088,124.755,172.506,124.118,173.458C123.542,174.319,122.278,173.927,121.351,172.599C119.811,171.11,119.287,168.712,117.459,167.686C113.279,168.795,95.776,172.745,95.872,174.6C95.872,174.89,96.058,175.774,96.284,176.565C96.779,178.29,96.227,179.599,95.004,179.599C94.543,179.599,94.166,179.41,94.166,179.177ZZM161.307,176.49C161.038,175.79,162.332,173.463,165.726,168.542C168.43,164.619,171.778,158.251,171.782,157.02C173.323,153.503,175.459,152.338,178.397,154.332C179.331,154.977,181.342,156.013,182.867,156.635C186.056,157.934,186.698,157.719,186.721,155.346C187.076,153.328,187.253,151.383,188.499,149.137C189.336,147.532,192.301,148.419,192.114,149.79C191.986,152.999,191.412,152.551,190.76,155.932C189.639,158.531,189.645,158.707,190.865,159.171C191.502,159.413,192.663,159.915,193.445,160.286C194.691,160.878,195.028,163.012,193.556,162.592C192.812,162.38,192.084,162.17,189.203,161.471C185.015,160.456,178.698,158.814,177.507,157.826C176.695,157.152,176.169,157.616,175.154,159.902C173.206,164.285,172.459,165.682,170.593,168.426C167.629,172.782,164.891,175.831,163.371,176.467C161.681,177.174,161.57,177.175,161.307,176.49ZZM75.829,166.661C75.829,165.902,78.257,161.073,79.754,158.855C80.41,157.883,80.947,156.875,80.947,156.616C80.947,155.898,83.78,156.055,84.541,156.815C85.563,157.838,85.367,158.628,83.446,161.223C80.77,164.839,78.167,167.232,76.911,167.232C76.291,167.232,75.829,166.988,75.829,166.661ZZM56.932,161.777C55.475,160.86,54.892,156.002,54.541,149.622C54.358,146.291,54.284,143.426,54.376,143.256C54.759,142.55,58.143,142.057,62.149,142.124C66.09,142.19,66.527,142.115,67.67,141.174C70.503,138.453,73.884,136.878,76.398,133.719C77.273,132.681,79.877,132.732,81.586,133.117C84.119,133.165,96.671,132.985,98.837,132.525C99.776,132.325,100.819,132.04,101.404,130.932C103.971,127.336,106.276,126.1,108.42,122.136C109.174,120.63,109.279,120.588,111.993,120.733C116.157,120.611,119.693,119.835,123.884,119.215C125.223,119.018,127.549,116.677,133.745,109.291C135.348,107.379,135.728,107.135,136.73,107.377C137.361,107.529,139.121,108.883,140.641,110.384C143.184,112.896,148.415,116.799,150.096,117.438C150.571,117.618,150.87,117.438,151.015,116.884C151.385,115.468,152.451,115.497,157.217,117.048C159.763,117.876,163.457,118.773,165.427,119.041C170.324,119.708,172.206,120.242,172.206,120.965C172.206,121.885,170.788,122.455,168.503,122.455C166.441,122.455,156.739,121.006,155.424,120.501C154.494,120.144,154.551,120.719,155.575,122.029C156.034,122.615,156.413,123.324,156.418,123.603C156.441,124.823,155.303,124.504,151.68,122.276C147.539,119.847,143.407,117.382,139.631,114.402C136.783,112.12,136.733,112.149,127.428,121.614C121.144,128.007,118.851,130.086,118.314,129.88C117.422,129.537,117.302,128.118,119.262,126.088C120.658,124.643,121.765,123.688,120.412,124.008C116.645,124.897,112.899,123.989,111.652,124.921C108.802,127.05,103.975,133.458,103.975,134.337C103.975,135.994,102.208,136.373,92.674,136.758C89.706,137.476,80.446,136.845,78.315,137.838C76.888,138.589,70.822,143.689,70.061,144.777C69.461,145.635,69.002,145.706,63.242,145.835C57.801,145.957,57.066,146.058,57.068,146.688C57.072,147.901,59.076,156.669,59.844,158.831C60.534,160.772,60.533,160.92,59.818,161.71C58.318,163.069,58.347,162.667,56.932,161.777ZZM134.892,142.619C131.843,141.786,127.621,140.921,125.51,140.697C120.86,140.205,119.89,139.853,119.238,138.423C118.83,137.528,118.852,137.247,119.351,136.931C123.401,136.057,126.749,137.204,130.628,138.198C132.177,138.595,133.364,138.022,137.235,135.007C141.437,131.735,143.312,130.558,144.326,130.558C149.333,132.027,152.711,134.921,157.442,137.133C161.676,139.098,162.497,139.765,161.263,140.238C160.239,140.631,152.233,137.823,148.45,135.744L145.466,134.103C144.602,134.868,139.02,139.859,139.203,140.441C139.346,140.673,140.32,141.23,141.367,141.679C142.736,142.266,143.231,142.705,143.129,143.243C142.906,144.425,140.959,144.277,134.892,142.619ZZM206.924,135.189C206.901,134.632,207.021,133.604,207.415,131.388C207.809,129.173,208.222,126.45,208.333,125.339C208.516,123.514,208.438,123.281,207.523,122.933C206.595,122.58,194.02,122.675,193.657,123.038C193.571,123.124,194.179,123.873,195.009,124.703C196.263,125.957,196.455,126.38,196.147,127.212C195.944,127.762,195.495,128.269,195.149,128.337C190.136,125.843,185.113,122.15,180.781,119.765L177.405,122.923C173.787,126.306,171.377,127.837,170.311,127.428C169.01,126.929,169.694,125.633,172.953,122.417C175.828,119.859,177.164,116.458,180.212,115.304C181.282,114.93,181.736,115.093,184.082,116.687C186.249,117.806,190.47,122.069,192.427,122.455C191.968,121.091,191.84,119.827,192.701,119.242C193.46,118.772,210.466,118.985,212.292,119.486C214.924,120.209,215.085,120.436,214.449,122.529C212.89,125.506,211.391,135.066,209.204,136.723C206.918,138.679,206.977,136.362,206.924,135.189ZZM258.563,82.21C257.861,81.696,257.925,81.414,259.547,77.857L261.282,74.054L260.408,73.307C259.927,72.897,259.236,72.561,258.872,72.561C257.491,72.561,251.183,68.398,248.087,65.443C243.991,61.021,243.39,59.337,242.329,57.32C238.349,47.497,241.782,34.558,248.133,27.153C250.968,23.979,252.044,23.056,255.044,21.229C256.607,20.277,256.523,19.148,254.781,17.687C252.768,15.998,252.132,13.851,253.016,11.722C255.194,6.477,265.569,0.042,271.916,0C283.524,0.919,289.969,8.191,290.103,13.584C290.117,15.09,289.864,15.637,288.52,17.014C287.297,18.376,286.132,19.118,288.094,20.023C297.16,24.33,303.103,35.152,301.623,43.989C300.239,52.14,297.474,56.611,289.173,64.512C280.145,73.105,269.658,74.144,266.11,73.948C264.292,76.297,261.177,83.868,258.563,82.21ZZM263.587,68.3C266.198,66.493,267.229,67.135,268.797,69.037L271.777,68.42C285.228,65.658,297.671,50.877,296.028,40.685C295.625,39.145,287.742,36.233,283.722,36.139C282.267,36.106,281.78,36.126,280.744,37.307C277.248,41.287,273.446,45.239,268.235,43.821C265.818,43.097,266.301,41.367,264.355,37.822C262.597,34.619,262.498,33.641,263.827,32.645C264.114,29.693,262.475,28.087,260.899,24.831C257.89,26.891,256.668,26.903,253.445,26.565C250.177,30.213,247.438,34.309,246.395,38.056C245.085,42.862,244.846,48.327,245.772,52.261C246.192,54.044,246.651,55.497,246.792,55.49C248.278,54.501,249.265,53.544,250.687,52.305L249.72,50.386C248.865,48.688,248.756,47.853,248.776,43.136C248.803,36.458,249.507,34.841,251.69,36.438C252.337,36.911,252.458,37.807,252.546,42.748C252.649,48.589,252.831,49.533,253.851,49.533C254.804,49.533,254.908,48.468,254.252,45.416C253.907,43.81,253.627,40.987,253.63,39.142C253.638,34.94,254.451,33.746,256.355,35.14C257.416,37.175,257.436,46.631,259.053,45.133C259.213,44.973,259.15,43.77,258.913,42.461C258.565,40.544,258.599,39.962,259.085,39.476C260.576,37.985,262.303,39.1,263.001,42.003C263.275,43.139,263.772,44.486,264.107,44.998C264.994,46.351,264.481,47.827,263.124,47.827C260.353,51.524,250.196,54.919,249.41,59.768C249.381,61.251,255.346,66.367,258.945,67.946C262.12,69.339,262.821,69.392,263.587,68.3ZZM257.795,65.375C257.061,65.086,254.077,61.636,254.091,61.094C254.12,59.919,256.389,58.849,257.763,59.362C258.904,59.788,261.651,62.59,261.997,63.679C262.529,65.357,260.165,66.311,257.795,65.375ZZM278.159,60C277.352,59.193,277.113,58.506,277.113,56.996C277.113,55.486,277.352,54.799,278.159,53.991C279.466,52.684,282.16,52.542,283.23,53.724C284.148,54.739,284.12,55.204,283.083,56.143C282.569,56.607,282.23,57.456,282.23,58.275C282.23,59.737,281.147,61.047,279.938,61.047C279.535,61.047,278.735,60.576,278.159,60ZZM273.335,34.253C271.392,31.742,267.278,24.86,267.526,23.054L267.81,21.761C267.066,21.652,261.355,23.031,263.918,23.093C264.663,23.093,265.184,23.884,267.571,28.637C269.603,32.682,273.862,37.601,274.651,36.813C274.967,36.497,274.575,35.734,273.335,34.253ZZM278.219,31.149C279.027,30.254,279.021,30.239,277.117,28.548C276.064,27.613,274.68,26.577,274.04,26.246L272.877,25.645C271.303,26.475,274.854,29.649,276.005,31.556C276.468,32.304,277.317,32.148,278.219,31.149ZZM272.854,21.691C272.692,21.507,272.002,21.569,271.318,21.83C270.154,22.274,270.125,22.34,270.857,22.877C271.522,23.366,271.749,23.345,272.392,22.739C272.807,22.347,273.015,21.876,272.854,21.691ZZM284.065,15.47C284.583,12.847,283.901,12.438,282.511,14.538C281.243,16.454,281.134,16.951,281.91,17.272C283.115,17.769,283.708,17.272,284.065,15.47ZZM264.319,16.782C263.564,14.859,262.498,12.377,262.927,10.258C263.265,8.966,262.331,9.315,261.088,10.945C257.141,14.38,264.164,18.038,264.319,16.782ZZM268.102,7.315C267.308,7.315,266.846,9.685,266.967,13.144C267.035,15.097,267.36,16.161,268.452,16.376C270.54,17.259,268.833,7.538,268.102,7.315ZZM272.587,4.756C271.508,7.323,273.05,11.417,271.767,15.097C271.608,15.508,272.009,16.603,273.201,15.699C276.008,13.411,274.388,5.228,272.587,4.756ZZM278.762,7.83C278.196,7.722,278.03,8.194,277.866,10.385C277.755,11.863,277.519,13.407,277.342,13.818C276.937,15.859,281.741,8.648,278.762,7.83ZZ" style="fill: rgb(3, 3, 3);"/></g></g></g></svg>