<svg xmlns:xlink="http://www.w3.org/1999/xlink" width="33" xmlns="http://www.w3.org/2000/svg" height="51" id="screenshot-2174b847-2632-802f-8001-7e6b08a067b5" viewBox="0 0 33 51" style="-webkit-print-color-adjust: exact;" fill="none" version="1.1"><g id="shape-2174b847-2632-802f-8001-7e6b08a067b5" rx="0" ry="0"><g id="shape-2174b847-2632-802f-8001-7e6a6e1c7757" width="500" height="500" rx="0" ry="0" style="fill: rgb(0, 0, 0);"><g id="shape-2174b847-2632-802f-8001-7e6a6e2110d2"><g id="fills-2174b847-2632-802f-8001-7e6a6e2110d2"><path rx="0" ry="0" d="M33,11.311L31.989,10.155L30.977,9L23.739,17.199L16.5,25.399L9.261,17.199L2.023,9L1.011,10.155L0,11.311L8.25,20.655L16.5,30L24.75,20.655Z" style="fill: rgb(255, 255, 255); fill-opacity: 0.987652;"/></g></g></g><g id="shape-2174b847-2632-802f-8001-7e6acfcf524e" width="500" height="500" rx="0" ry="0" style="fill: rgb(0, 0, 0);"><g id="shape-2174b847-2632-802f-8001-7e6acfcf5250"><g id="fills-2174b847-2632-802f-8001-7e6acfcf5250"><path rx="0" ry="0" d="M33,24.311L31.989,23.155L30.977,22L23.739,30.199L16.5,38.399L9.261,30.199L2.023,22L1.011,23.155L0,24.311L8.25,33.655L16.5,43L24.75,33.655Z" style="fill: rgb(255, 255, 255); fill-opacity: 0.987652;"/></g></g></g></g></svg>