<svg xmlns:xlink="http://www.w3.org/1999/xlink" width="157.5" xmlns="http://www.w3.org/2000/svg" height="252.211" id="screenshot-2174b847-2632-802f-8001-7e65ee5bab29" viewBox="0 0 157.5 252.211" style="-webkit-print-color-adjust: exact;" fill="none" version="1.1"><g id="shape-2174b847-2632-802f-8001-7e65ee5bab29" rx="0" ry="0"><g id="shape-b6de7595-666d-8059-8001-7d01e1a89379" height="105.84939mm" width="105.48698mm" rx="0" ry="0" style="fill: rgb(0, 0, 0);"><g id="shape-b6de7595-666d-8059-8001-7d01e1a8937b"><g id="fills-b6de7595-666d-8059-8001-7d01e1a8937b"><path color="#000" overflow="visible" rx="0" ry="0" d="M82.214,228.493L88.624,248.253L97.039,245.628C101.241,249.72,107.277,250.577,112.873,252.211C117.798,245.269,122.985,236.567,130.154,230.19C121.801,221.868,125.658,219.196,112.061,203.954L99.601,205.224C86.756,196.585,88.001,199.164,89.957,212.554C82.929,222.054,74.519,224.101,82.214,228.493ZZ" style="fill: rgb(255, 255, 255);"/></g></g><g id="shape-b6de7595-666d-8059-8001-7d01e1a8937c"><g id="fills-b6de7595-666d-8059-8001-7d01e1a8937c"><path rx="0" ry="0" d="M111.282,252.135C111.23,252.05,110.566,251.835,109.806,251.657C105.978,249.74,101.049,249.788,97.874,246.686C97.874,246.616,97.634,246.475,97.342,246.371C97.045,246.266,96.81,246.054,96.81,245.891C96.81,245.507,95.993,245.586,95.412,246.025C95.179,246.201,94.882,246.344,94.752,246.344C90.129,247.507,88.446,250.246,86.708,245.444C85.861,243.342,85.203,241.235,84.575,239.145C83.25,236.16,82.582,232.317,81.331,229.478C81.201,229.191,81.214,229.003,81.375,228.805C81.724,228.379,81.5,228.09,80.379,227.522C79.896,227.352,78.388,226.174,77.976,226.226C77.564,226.289,76.894,225.291,77.259,225.158C77.381,225.114,77.481,224.963,77.481,224.823C77.481,224.682,77.58,224.565,77.702,224.561C77.935,224.554,78.899,223.132,78.899,222.796C79.903,222.212,80.636,220.619,81.353,219.935C82.901,218.55,83.586,217.756,85.017,216.021C85.505,215.429,86.671,214.161,87.609,213.205C89.296,211.484,89.31,211.462,88.894,211.236C88.645,211.101,88.401,210.738,88.298,210.349C87.857,206.883,88.117,197.585,89.079,198.244C89.151,198.317,89.304,198.385,89.419,198.394C92.023,200.432,96.812,201.517,98.938,204.021C98.938,204.332,99.946,204.278,100.066,203.961C104.047,203.398,107.772,202.69,111.253,202.766C111.541,202.775,111.914,202.655,112.083,202.5C112.364,202.242,112.418,202.25,112.708,202.594C112.883,202.801,113.119,202.971,113.232,202.971C113.536,202.971,113.668,203.693,113.442,204.121C113.175,204.627,112.839,204.951,112.581,204.951C112.463,204.951,112.033,205.254,111.626,205.626C110.663,206.504,109.945,207.11,109.868,207.11C109.834,207.11,109.096,207.527,108.229,208.035C106.015,209.334,105.208,209.783,101.332,211.872C100.649,212.24,100.011,212.605,99.913,212.683C99.332,213.148,96.171,214.714,95.813,214.714C95.186,214.714,95.129,214.971,95.613,215.622C96.259,216.926,97.331,218.454,97.776,219.618C97.943,220.064,98.114,220.428,98.154,220.428C98.319,220.428,100.179,218.451,100.179,218.276C100.179,218.173,100.243,218.089,100.322,218.089C100.4,218.089,101.46,217.097,102.678,215.884C104.677,213.893,105.797,212.86,107.095,211.81C107.339,211.613,107.818,211.22,108.159,210.936C108.5,210.652,109.458,209.914,110.287,209.296C111.116,208.678,111.974,208.005,112.194,207.802C112.413,207.598,112.712,207.479,112.859,207.535C113.216,207.675,113.193,207.53,112.788,207.088C112.29,206.546,112.217,205.871,112.613,205.47C113.198,204.876,114.102,205.112,114.446,205.947C114.597,206.314,114.923,206.651,115.303,206.834C115.852,207.098,119.108,210.435,119.331,210.96C119.38,211.076,119.801,211.694,120.267,212.335C121.81,214.457,123.188,216.785,124.578,219.618C127.134,226.043,131.117,228.633,129.942,229.295C129.823,229.526,129.853,229.641,130.052,229.719C130.281,232.444,124.768,234.588,123.413,237.076C122.559,238.688,122.139,239.409,121.839,239.775C121.677,239.973,121.393,240.439,121.208,240.81C118.864,244.431,116.868,247.344,114.652,250.797C114.446,251.118,114.204,251.382,114.114,251.382C114.024,251.384,113.813,251.51,113.644,251.665C113.476,251.819,112.981,251.97,112.545,251.999C112.109,252.029,111.667,252.106,111.564,252.171C111.46,252.236,111.333,252.22,111.282,252.135ZZM112.766,249.856C115.682,246.768,117.171,244.19,119.052,240.776C119.205,240.647,119.331,240.465,119.331,240.371C119.331,240.205,120.086,239.112,120.528,238.638C120.847,238.295,120.801,238.059,120.439,238.189C120.269,238.25,119.69,238.555,119.154,238.865C117.336,239.918,117.115,240.04,116.201,240.498C115.699,240.749,115.19,241.074,115.071,241.22C114.952,241.366,114.751,241.485,114.625,241.485C114.499,241.485,114.244,241.695,114.06,241.952C113.747,242.388,113.623,242.421,112.184,242.447C108.559,242.779,105.294,243.111,101.509,244.198C100.436,244.505,99.379,244.799,99.159,244.852C98.614,244.981,98.658,245.131,99.331,245.433C99.644,245.574,100.09,245.917,100.322,246.197C103.308,248.666,107.3,248.228,110.262,249.94C111.87,249.867,111.749,250.234,112.766,249.856ZZM89.994,245.785C90.074,245.654,90.153,245.648,90.227,245.769C92.028,245.45,94.376,244.32,96.143,243.76C97.781,243.226,100.251,242.53,100.769,242.458C101.045,242.42,101.35,242.339,101.447,242.278C101.81,242.051,105.375,241.174,106.075,241.14C106.288,241.13,106.386,240.977,106.386,240.656C106.386,240.313,106.314,240.215,106.12,240.29C105.964,240.351,105.854,240.293,105.854,240.149C105.854,239.913,105.373,239.598,105.102,239.656C105.029,239.672,104.814,239.548,104.622,239.382C104.052,238.887,100.756,237.18,100.625,237.313C100.559,237.38,100.412,237.314,100.298,237.165C96.369,235.009,92.052,233.841,88.253,231.927C87.339,231.479,86.313,231.063,85.598,230.586C85.088,230.246,84.595,229.967,84.503,229.967C84.411,229.967,84.189,229.832,84.01,229.668C83.831,229.504,83.639,229.416,83.582,229.474C83.525,229.531,83.725,230.378,84.026,231.356C84.327,232.333,84.574,233.266,84.574,233.429C84.574,233.592,84.647,233.771,84.737,233.827C84.89,233.923,85.327,235.199,86.406,238.695C86.144,239.622,88.642,244.213,88.652,244.871C88.652,245.266,89.28,245.984,89.624,245.984C89.761,245.984,89.927,245.895,89.994,245.785ZZM111.899,239.585C111.981,239.534,112.046,238.34,112.044,236.933C112.041,235.526,112.086,233.282,112.144,231.946C112.24,229.748,112.369,228.35,112.954,223.218C113.302,220.158,113.474,216.732,113.484,212.642C113.493,208.754,113.332,207.209,113.048,208.475C112.901,209.13,112.697,209.392,111.75,210.143C111.182,211.125,110.353,211.29,109.695,211.934C106.577,214.718,103.43,217.826,100.801,220.698C100.076,221.49,99.479,222.3,99.476,222.498C99.474,222.696,99.643,223.141,99.854,223.488C101.616,227.117,104.259,230.86,106,234.286C106.421,235.128,107.039,236.22,107.373,236.714C107.708,237.208,107.982,237.727,107.982,237.868C107.982,238.123,108.151,238.345,109.09,239.322C109.358,239.601,109.578,239.912,109.578,240.012C109.578,240.18,111.52,239.823,111.899,239.585ZZM115.453,238.852C115.586,238.746,116.095,238.465,116.582,238.227C117.07,237.99,117.509,237.753,117.558,237.7C117.606,237.647,118.205,237.33,118.888,236.995C119.57,236.66,120.448,236.179,120.838,235.927C121.228,235.675,121.83,235.303,122.175,235.102C124.376,233.456,126.306,232.594,128.331,230.894C129.349,230.04,129.534,229.604,128.818,229.743C128.544,229.796,128.375,229.746,128.375,229.612C128.375,229.493,128.016,228.978,127.577,228.469C125.811,226.144,124.528,223.471,123.669,221.778C123.175,220.953,122.599,219.677,122.518,219.528C122.437,219.38,121.953,218.489,121.442,217.549C120.523,215.854,119.374,214.095,119.112,213.979C119.038,213.946,118.976,213.838,118.976,213.74C118.976,213.533,117.907,212.168,117.093,211.335C116.789,211.023,116.399,210.55,116.226,210.283C115.769,209.574,115.519,209.791,115.512,210.905C115.508,211.441,115.433,213.094,115.345,214.579C115.257,216.064,115.203,217.346,115.224,217.428C115.245,217.51,115.181,218.239,115.081,219.048C114.881,220.686,114.313,226.975,114.315,227.537C114.316,227.735,114.244,228.707,114.155,229.697C114.066,230.687,113.961,231.983,113.921,232.576C113.811,234.213,113.799,238.763,113.904,238.936C114.033,239.147,115.158,239.087,115.453,238.852ZZM105.89,237.393C105.7,237.12,105.31,236.45,105.024,235.906C104.737,235.362,104.308,234.589,104.07,234.189C103.832,233.79,103.543,233.304,103.429,233.11C101.598,229.703,99.869,227.421,98.256,224.177C97.993,223.647,97.655,223.259,97.338,223.126C96.763,222.885,96.59,222.554,96.733,221.974C96.826,221.598,96.393,220.603,95.825,219.888C95.707,219.74,95.552,219.424,95.481,219.187C95.332,218.695,93.608,215.87,93.4,215.779C93.325,215.746,93.263,215.644,93.263,215.552C93.263,215.326,91.29,212.33,91.141,212.33C90.965,212.33,89.474,213.837,87.677,215.834C85.228,218.617,82.617,221.334,80.509,223.82C79.468,225.052,79.468,225.048,80.616,225.567C80.926,225.707,81.228,225.9,81.286,225.996C82.068,226.666,82.986,226.83,83.824,227.491C90.877,231.545,98.172,233.725,104.08,236.975C104.239,237.19,105.676,237.884,105.682,237.748C105.685,237.675,105.779,237.776,105.89,237.971C106.017,238.194,106.12,238.245,106.165,238.109C106.204,237.989,106.081,237.667,105.89,237.393ZZM94.504,213.039C94.504,212.934,94.584,212.898,94.681,212.959C97.131,211.851,99.857,210.878,101.737,209.424C101.765,209.445,101.91,209.338,102.06,209.186C102.21,209.034,102.452,208.91,102.599,208.91C103.135,208.91,102.728,208.267,101.773,207.606C98.118,206.318,94.951,203.062,91.405,201.531C91.334,201.531,91.025,201.318,90.72,201.058C90.166,200.584,90.166,200.584,90.065,201.013C89.911,201.665,89.98,209.29,90.145,209.86C90.29,210.361,90.29,210.361,90.868,209.913C91.186,209.667,91.492,209.512,91.548,209.569C91.604,209.626,91.779,209.542,91.937,209.381C92.348,208.964,92.708,209.021,92.941,209.54C93.091,209.875,93.092,210.104,92.942,210.437C92.716,210.942,92.784,211.164,93.533,212.369C94.022,213.155,94.505,213.488,94.504,213.039ZZM105.112,206.211C106.127,205.746,107.151,205.146,108.283,205.131C108.508,205.131,108.691,205.039,108.691,204.926C108.691,204.709,107.966,204.743,104.346,205.131C102.281,205.353,101.948,205.474,102.387,205.843C103.1,206.444,104.944,206.693,105.112,206.211ZZ" style="fill: rgb(3, 3, 3);"/></g></g></g><g id="shape-b6de7595-666d-8059-8001-7d01d08b51ed" height="105.84939mm" width="105.48698mm" rx="0" ry="0" style="fill: rgb(0, 0, 0);"><g id="shape-b6de7595-666d-8059-8001-7d01d08d44b1"><g id="fills-b6de7595-666d-8059-8001-7d01d08d44b1"><path color="#000" overflow="visible" rx="0" ry="0" d="M13.56,172.474L19.97,192.234L28.385,189.609C32.587,193.701,38.623,194.558,44.219,196.192C49.144,189.25,54.331,180.548,61.5,174.17C53.147,165.848,57.004,163.177,43.407,147.935L30.947,149.205C18.102,140.566,19.347,143.145,21.303,156.534C14.275,166.035,5.865,168.082,13.56,172.474ZZ" style="fill: rgb(255, 255, 255);"/></g></g><g id="shape-b6de7595-666d-8059-8001-7d01d09d027f"><g id="fills-b6de7595-666d-8059-8001-7d01d09d027f"><path rx="0" ry="0" d="M42.628,196.116C42.576,196.031,41.912,195.816,41.152,195.638C37.324,193.721,32.395,193.769,29.22,190.667C29.22,190.597,28.98,190.456,28.688,190.352C28.391,190.247,28.156,190.035,28.156,189.872C28.156,189.488,27.339,189.567,26.758,190.006C26.525,190.181,26.228,190.325,26.098,190.325C21.475,191.488,19.792,194.227,18.054,189.425C17.207,187.323,16.549,185.215,15.921,183.126C14.596,180.14,13.928,176.297,12.677,173.459C12.547,173.172,12.56,172.984,12.721,172.786C13.07,172.36,12.846,172.071,11.725,171.503C11.242,171.333,9.735,170.155,9.322,170.207C8.91,170.27,8.24,169.272,8.605,169.139C8.727,169.095,8.827,168.944,8.827,168.803C8.827,168.663,8.926,168.546,9.048,168.542C9.281,168.535,10.245,167.113,10.245,166.777C11.249,166.192,11.982,164.599,12.699,163.916C14.248,162.531,14.932,161.736,16.363,160.002C16.851,159.41,18.017,158.142,18.955,157.185C20.642,155.465,20.656,155.443,20.24,155.217C19.991,155.082,19.747,154.718,19.644,154.33C19.203,150.864,19.464,141.566,20.425,142.225C20.497,142.298,20.65,142.366,20.765,142.375C23.369,144.413,28.158,145.498,30.284,148.002C30.284,148.313,31.292,148.259,31.412,147.942C35.394,147.379,39.118,146.671,42.599,146.746C42.887,146.756,43.26,146.636,43.429,146.481C43.71,146.223,43.764,146.231,44.054,146.575C44.229,146.782,44.465,146.952,44.578,146.952C44.882,146.952,45.014,147.674,44.788,148.102C44.521,148.607,44.185,148.932,43.927,148.932C43.809,148.932,43.379,149.235,42.972,149.606C42.009,150.485,41.291,151.091,41.214,151.091C41.18,151.091,40.442,151.507,39.575,152.016C37.361,153.314,36.554,153.764,32.678,155.853C31.995,156.221,31.357,156.586,31.259,156.664C30.678,157.129,27.517,158.695,27.159,158.695C26.532,158.695,26.475,158.952,26.959,159.603C27.605,160.907,28.677,162.435,29.122,163.599C29.289,164.045,29.46,164.409,29.5,164.409C29.665,164.409,31.525,162.432,31.525,162.257C31.525,162.154,31.589,162.07,31.668,162.07C31.746,162.07,32.807,161.077,34.024,159.865C36.023,157.874,37.143,156.84,38.441,155.791C38.685,155.594,39.164,155.201,39.505,154.917C39.847,154.633,40.804,153.895,41.633,153.277C42.462,152.658,43.32,151.986,43.54,151.783C43.759,151.579,44.059,151.459,44.205,151.516C44.562,151.656,44.539,151.511,44.134,151.069C43.636,150.527,43.563,149.852,43.959,149.45C44.544,148.857,45.448,149.093,45.792,149.928C45.943,150.294,46.269,150.632,46.649,150.815C47.198,151.079,50.455,154.416,50.677,154.941C50.726,155.056,51.147,155.675,51.613,156.315C53.156,158.438,54.534,160.766,55.924,163.599C58.48,170.024,62.463,172.614,61.288,173.275C61.169,173.506,61.199,173.622,61.398,173.7C61.627,176.425,56.114,178.569,54.759,181.057C53.905,182.669,53.485,183.39,53.185,183.756C53.023,183.954,52.739,184.42,52.554,184.791C50.21,188.411,48.214,191.325,45.998,194.778C45.792,195.099,45.55,195.363,45.46,195.363C45.37,195.365,45.159,195.491,44.99,195.645C44.822,195.8,44.327,195.951,43.891,195.98C43.455,196.01,43.013,196.087,42.91,196.152C42.806,196.217,42.679,196.201,42.628,196.116ZZM44.112,193.837C47.028,190.749,48.517,188.171,50.398,184.757C50.552,184.628,50.677,184.446,50.677,184.352C50.677,184.186,51.432,183.093,51.874,182.619C52.193,182.276,52.147,182.039,51.785,182.17C51.615,182.231,51.036,182.536,50.5,182.846C48.682,183.899,48.461,184.021,47.547,184.479C47.045,184.73,46.536,185.055,46.417,185.201C46.298,185.347,46.097,185.466,45.971,185.466C45.845,185.466,45.591,185.676,45.406,185.933C45.093,186.369,44.969,186.402,43.53,186.428C39.905,186.76,36.64,187.092,32.855,188.179C31.782,188.486,30.725,188.78,30.506,188.832C29.96,188.962,30.004,189.112,30.677,189.414C30.99,189.555,31.436,189.898,31.668,190.177C34.654,192.647,38.646,192.209,41.608,193.921C43.216,193.848,43.095,194.215,44.112,193.837ZZM21.34,189.766C21.42,189.634,21.499,189.629,21.573,189.75C23.374,189.431,25.722,188.301,27.489,187.741C29.127,187.206,31.597,186.511,32.115,186.439C32.391,186.401,32.696,186.32,32.794,186.259C33.156,186.031,36.722,185.155,37.421,185.121C37.634,185.111,37.732,184.958,37.732,184.637C37.732,184.294,37.66,184.195,37.466,184.271C37.31,184.332,37.2,184.274,37.2,184.13C37.2,183.894,36.719,183.579,36.448,183.637C36.375,183.653,36.16,183.529,35.968,183.363C35.398,182.868,32.102,181.161,31.972,181.294C31.905,181.361,31.758,181.295,31.644,181.146C27.715,178.99,23.398,177.822,19.6,175.908C18.685,175.46,17.659,175.044,16.944,174.567C16.434,174.227,15.941,173.948,15.849,173.948C15.757,173.948,15.535,173.813,15.356,173.649C15.177,173.484,14.985,173.397,14.928,173.455C14.871,173.512,15.071,174.359,15.372,175.337C15.673,176.314,15.92,177.247,15.92,177.41C15.92,177.573,15.993,177.752,16.083,177.808C16.236,177.904,16.673,179.18,17.752,182.676C17.49,183.603,19.988,188.194,19.999,188.852C19.999,189.246,20.626,189.965,20.97,189.965C21.107,189.965,21.274,189.876,21.34,189.766ZZM43.245,183.566C43.327,183.515,43.393,182.321,43.39,180.914C43.387,179.507,43.433,177.263,43.49,175.927C43.586,173.729,43.715,172.331,44.3,167.199C44.648,164.139,44.82,160.713,44.83,156.623C44.839,152.735,44.678,151.19,44.394,152.456C44.247,153.111,44.043,153.373,43.096,154.124C42.528,155.106,41.699,155.271,41.041,155.915C37.923,158.699,34.776,161.807,32.147,164.679C31.422,165.471,30.826,166.281,30.823,166.479C30.82,166.677,30.99,167.122,31.2,167.469C32.962,171.098,35.606,174.841,37.346,178.267C37.767,179.108,38.385,180.201,38.719,180.695C39.054,181.188,39.328,181.708,39.328,181.849C39.328,182.104,39.497,182.326,40.436,183.303C40.704,183.582,40.924,183.892,40.924,183.992C40.924,184.161,42.866,183.804,43.245,183.566ZZM46.799,182.833C46.932,182.727,47.441,182.446,47.928,182.208C48.416,181.971,48.855,181.734,48.904,181.681C48.953,181.628,49.551,181.311,50.234,180.976C50.916,180.641,51.794,180.16,52.184,179.908C52.575,179.655,53.176,179.284,53.521,179.083C55.722,177.437,57.652,176.575,59.677,174.875C60.695,174.021,60.88,173.585,60.164,173.724C59.89,173.777,59.721,173.727,59.721,173.593C59.721,173.473,59.362,172.959,58.923,172.45C57.157,170.125,55.874,167.452,55.015,165.759C54.521,164.934,53.945,163.658,53.864,163.509C53.783,163.361,53.299,162.47,52.789,161.53C51.869,159.835,50.72,158.076,50.458,157.96C50.384,157.927,50.322,157.819,50.322,157.72C50.322,157.514,49.254,156.149,48.439,155.316C48.135,155.004,47.745,154.531,47.572,154.263C47.115,153.555,46.865,153.772,46.858,154.886C46.854,155.422,46.779,157.075,46.691,158.56C46.603,160.045,46.549,161.327,46.57,161.409C46.591,161.491,46.527,162.22,46.427,163.029C46.227,164.666,45.659,170.956,45.661,171.518C45.662,171.716,45.59,172.688,45.501,173.678C45.412,174.668,45.307,175.963,45.267,176.557C45.157,178.194,45.145,182.744,45.25,182.917C45.379,183.128,46.504,183.068,46.799,182.833ZZM37.236,181.374C37.046,181.101,36.656,180.431,36.37,179.887C36.083,179.342,35.654,178.57,35.416,178.17C35.178,177.771,34.889,177.285,34.775,177.09C32.944,173.684,31.215,171.402,29.602,168.158C29.339,167.628,29.001,167.24,28.684,167.107C28.109,166.865,27.936,166.535,28.079,165.955C28.172,165.579,27.739,164.584,27.171,163.869C27.053,163.721,26.898,163.405,26.827,163.168C26.678,162.676,24.954,159.851,24.746,159.76C24.671,159.727,24.609,159.625,24.609,159.533C24.609,159.307,22.636,156.31,22.487,156.31C22.311,156.31,20.82,157.818,19.023,159.815C16.574,162.598,13.963,165.315,11.855,167.801C10.814,169.032,10.814,169.029,11.962,169.548C12.272,169.688,12.574,169.881,12.632,169.977C13.414,170.647,14.332,170.81,15.171,171.472C22.223,175.526,29.518,177.706,35.426,180.956C35.585,181.171,37.022,181.865,37.028,181.729C37.031,181.656,37.125,181.756,37.236,181.952C37.363,182.174,37.466,182.226,37.511,182.089C37.55,181.97,37.427,181.648,37.236,181.374ZZM25.851,157.02C25.851,156.915,25.93,156.879,26.028,156.94C28.477,155.832,31.204,154.859,33.083,153.405C33.111,153.426,33.256,153.319,33.406,153.167C33.556,153.015,33.798,152.891,33.945,152.891C34.481,152.891,34.074,152.248,33.119,151.587C29.464,150.299,26.297,147.043,22.751,145.512C22.68,145.512,22.372,145.299,22.067,145.038C21.512,144.565,21.512,144.565,21.411,144.993C21.257,145.646,21.326,153.271,21.491,153.841C21.636,154.342,21.636,154.342,22.214,153.894C22.532,153.648,22.838,153.493,22.894,153.55C22.95,153.607,23.126,153.523,23.283,153.362C23.694,152.945,24.054,153.002,24.287,153.521C24.437,153.856,24.438,154.085,24.288,154.418C24.062,154.922,24.13,155.145,24.879,156.35C25.368,157.136,25.851,157.469,25.851,157.02ZZM36.458,150.192C37.473,149.727,38.497,149.127,39.629,149.111C39.854,149.111,40.037,149.02,40.037,148.907C40.037,148.69,39.312,148.724,35.692,149.112C33.627,149.334,33.294,149.454,33.733,149.824C34.446,150.425,36.29,150.674,36.458,150.192ZZ" style="fill: rgb(3, 3, 3);"/></g></g></g><g id="shape-b6de7595-666d-8059-8001-7d01cea2a125" height="96.987839mm" width="91.077011mm" rx="0" ry="0" style="fill: rgb(0, 0, 0);"><g id="shape-b6de7595-666d-8059-8001-7d01cea37f47"><g id="fills-b6de7595-666d-8059-8001-7d01cea37f47"><rect width="70" height="72" x="87.50000303457284" transform="matrix(1,0,0,1,0,0)" style="fill: none;" ry="0" fill="none" rx="0" y="59.047179991188045"/></g></g><g id="shape-b6de7595-666d-8059-8001-7d01cea48244"><g id="fills-b6de7595-666d-8059-8001-7d01cea48244"><path color="#000" overflow="visible" rx="0" ry="0" d="M100.891,61.047L156.498,61.373C156.564,88.416,154.978,113.53,145.175,129.047L89.5,128.07C95.857,117.272,105.619,86.359,100.891,61.047ZZ" style="fill: rgb(255, 255, 255);"/></g></g><g id="shape-b6de7595-666d-8059-8001-7d01ceb261c2"><g id="fills-b6de7595-666d-8059-8001-7d01ceb261c2"><path rx="0" ry="0" d="M136.528,130.615C122.1,131.762,106.275,130.296,91.9,130.006C90.52,129.984,89.325,129.863,89.243,129.735C89.162,129.608,88.862,129.504,88.578,129.504C87.975,129.504,87.5,128.768,87.5,127.833C87.5,127.378,87.725,127.07,88.23,126.834C98.752,110.685,101.029,82.994,98.982,64.055C98.845,62.782,98.621,61.604,98.484,61.436C97.94,60.766,97.892,59.77,98.383,59.341C98.775,58.998,99.055,58.968,99.861,59.183C100.508,59.356,107.495,59.406,119.911,59.326C130.392,59.259,139.639,59.221,140.459,59.242C141.279,59.263,151.278,59.631,154.356,59.636C156.787,59.239,157.303,59.825,157.5,62.244C155.919,76.804,157.848,102.755,149.21,123.04C146.435,129.363,146.01,130.564,144.214,130.465C143.638,130.563,137.124,130.726,136.528,130.615ZZM143.296,127.137C143.451,126.888,144.209,125.73,144.982,124.564C152.379,107.401,154.042,82.165,153.744,66.584C153.714,64.974,153.77,63.529,153.87,63.374C153.97,63.218,153.983,62.884,153.9,62.631C153.778,62.261,153.441,62.173,152.158,62.179C138.411,63.211,120.955,62.109,108.189,62.068C101.099,62.052,101.76,61.765,102.244,64.646C104.213,81.924,101.117,108.711,93.273,123.595C92.893,124.324,92.166,125.367,91.658,125.913C90.579,127.074,90.703,127.503,92.074,127.345C107.867,128.725,123.835,127.757,139.278,127.624C142.509,127.595,143.053,127.529,143.296,127.137ZZM134.63,121.724C133.399,121.345,132.115,121.172,130.02,121.102C121.792,120.511,111.706,121.084,104.401,120.768C103.234,120.718,102.156,120.559,102.007,120.415C101.858,120.271,101.668,119.667,101.586,119.073C101.437,118,101.632,117.8,102.669,117.966C103.072,118.031,106.8,118.242,110.159,118.39C117.961,118.752,125.303,118.392,133.466,118.465C136.369,118.48,136.369,118.48,136.787,119.539C137.31,120.862,137.309,121.097,136.779,121.609C136.304,122.068,135.827,122.093,134.63,121.724ZZM137.172,116.139C137.104,116.073,134.369,115.945,131.094,115.853C124.145,116.025,117.801,116.173,111.427,116.009C109.054,115.953,106.877,115.835,106.589,115.747C105.866,115.525,105.206,113.945,105.566,113.296C105.798,112.877,106.084,112.815,107.402,112.898C117.763,113.129,123.884,112.97,133.762,113.153C136.346,113.199,137.866,113.33,138.031,113.522C138.557,114.135,138.627,115.372,138.16,115.823C137.706,116.262,137.4,116.359,137.172,116.139ZZM138.512,106.294C129.545,104.681,119.024,106.568,110.005,105.29C110.005,105.19,109.425,105.035,108.717,104.944C108.008,104.854,107.178,104.662,106.871,104.518C106.225,104.216,105.75,103.119,105.886,102.242C105.973,101.681,106.068,101.648,107.111,101.821C107.733,101.924,108.425,102.021,108.649,102.037C108.872,102.053,109.137,102.175,109.237,102.309C118.884,103.15,128.914,102.498,138.679,103.033C139.488,103.078,139.929,103.291,140.509,103.918C141.394,104.875,141.456,105.286,140.798,105.837C140.215,106.326,138.632,106.642,138.512,106.294ZZM141.467,99.86C141.375,99.771,140.531,99.657,139.591,99.607C138.652,99.557,136.908,99.393,135.716,99.243C131.686,98.736,111.823,99.24,109.458,99.628C108.561,99.775,108.474,99.725,107.995,98.773C107.54,97.869,107.528,97.7,107.884,97.182C117.567,95.422,137.335,97.492,142.355,96.618C142.795,96.391,143,96.463,143.505,97.022C144.486,98.108,144.632,99.02,143.912,99.557C143.323,99.997,141.804,100.185,141.467,99.86ZZM109.51,93.197C109.014,93.16,108.497,92.959,108.361,92.752C107.765,91.842,108.334,89.572,109.021,90.122C118.765,90.705,127.045,90.261,137.436,90.501C143.849,90.642,144.797,90.773,144.797,91.516C144.797,91.705,144.929,91.902,145.09,91.954C145.293,92.019,145.279,92.27,145.042,92.771C144.701,93.494,144.701,93.494,139.665,93.419C129.409,92.761,119.883,93.912,109.51,93.197ZZM140.459,84.802C140.459,84.705,140.185,84.621,139.849,84.616C137.986,84.586,131.977,84.316,130.698,84.205C129.878,84.133,127.255,84.007,124.869,83.924C120.333,83.768,112.612,83.319,111.447,83.144C111.075,83.088,110.57,83.033,110.326,83.021C109.725,82.991,108.853,81.198,109.189,80.683C109.552,80.128,110.131,80.103,113.34,80.501C114.909,80.695,118.023,80.877,120.259,80.904C122.496,80.932,124.754,80.994,125.275,81.043C127.177,81.22,135.806,81.527,139.307,81.543C141.283,81.551,142.899,81.647,142.899,81.755C142.899,81.863,143.052,81.952,143.238,81.953C143.577,81.955,144.255,83.097,144.255,83.665C144.255,84.299,143.241,84.824,141.867,84.901C141.093,84.944,140.459,84.899,140.459,84.802ZZM136.992,78.573C133.788,78.579,132.841,78.521,130.048,78.146C128.784,77.976,123.158,77.762,115.408,77.589C109.16,77.449,108.465,77.284,108.465,75.948C108.465,74.89,109.119,74.152,109.736,74.513C110.046,74.695,112.277,74.811,115.786,74.828C120.991,74.853,127.184,75.061,129.337,75.282C129.857,75.336,131.748,75.449,133.54,75.533C135.332,75.617,137.531,75.731,138.426,75.785C139.32,75.84,140.272,75.802,140.541,75.701C145.833,75.393,146.997,78.124,143.678,78.669C141.184,79.118,139.165,78.573,136.992,78.573ZZM138.561,73.574C136.644,73.348,132.056,73.173,120.937,72.904C116.985,72.809,113.264,72.713,112.668,72.692C110.949,72.632,109.895,72.087,109.759,71.188C109.574,69.971,110.007,69.826,113.274,70.017C114.879,70.11,120.036,70.244,124.733,70.314C129.431,70.385,134.494,70.504,135.985,70.58C137.477,70.655,139.881,70.745,141.328,70.778C142.774,70.812,144.03,70.909,144.119,70.995C144.5,71.363,144.51,72.588,144.136,73.104C143.806,73.559,143.417,73.673,142.027,73.722C141.09,73.754,139.531,73.688,138.561,73.574ZZ" style="fill: rgb(3, 3, 3);"/></g></g></g><g id="shape-b6de7595-666d-8059-8001-7d01e637a06d" height="96.987839mm" width="91.077011mm" rx="0" ry="0" style="fill: rgb(0, 0, 0);"><g id="shape-b6de7595-666d-8059-8001-7d01e637a06e"><g id="fills-b6de7595-666d-8059-8001-7d01e637a06e"><rect width="70" height="72" x="0.00000151728636410553" transform="matrix(1,0,0,1,0,0)" style="fill: none;" ry="0" fill="none" rx="0" y="0.0000014751396975043463"/></g></g><g id="shape-b6de7595-666d-8059-8001-7d01e637a06f"><g id="fills-b6de7595-666d-8059-8001-7d01e637a06f"><path color="#000" overflow="visible" rx="0" ry="0" d="M13.391,2L68.998,2.326C69.064,29.369,67.478,54.483,57.675,70L2,69.023C8.357,58.225,18.119,27.312,13.391,2ZZ" style="fill: rgb(255, 255, 255);"/></g></g><g id="shape-b6de7595-666d-8059-8001-7d01e637a070"><g id="fills-b6de7595-666d-8059-8001-7d01e637a070"><path rx="0" ry="0" d="M49.028,71.568C34.6,72.715,18.775,71.249,4.4,70.958C3.02,70.937,1.825,70.815,1.743,70.688C1.662,70.561,1.362,70.456,1.078,70.456C0.475,70.456,0,69.721,0,68.786C0,68.331,0.225,68.023,0.73,67.786C11.252,51.638,13.529,23.947,11.482,5.008C11.345,3.735,11.121,2.557,10.984,2.389C10.44,1.719,10.392,0.723,10.883,0.294C11.275,-0.049,11.555,-0.079,12.361,0.136C13.008,0.309,19.995,0.359,32.411,0.279C42.892,0.212,52.139,0.174,52.959,0.195C53.779,0.216,63.778,0.584,66.856,0.588C69.287,0.192,69.803,0.778,70,3.197C68.419,17.757,70.348,43.708,61.71,63.993C58.935,70.315,58.51,71.517,56.714,71.418C56.138,71.516,49.624,71.679,49.028,71.568ZZM55.796,68.09C55.951,67.841,56.709,66.683,57.482,65.517C64.879,48.354,66.542,23.117,66.244,7.537C66.214,5.927,66.27,4.482,66.37,4.326C66.47,4.171,66.483,3.837,66.4,3.584C66.278,3.213,65.941,3.126,64.658,3.131C50.911,4.164,33.455,3.062,20.689,3.021C13.599,3.005,14.26,2.718,14.744,5.599C16.713,22.877,13.617,49.664,5.773,64.547C5.393,65.277,4.666,66.32,4.158,66.866C3.079,68.027,3.203,68.456,4.574,68.298C20.367,69.678,36.335,68.71,51.778,68.577C55.009,68.548,55.553,68.482,55.796,68.09ZZM47.13,62.677C45.899,62.298,44.615,62.124,42.52,62.055C34.292,61.463,24.206,62.036,16.901,61.721C15.734,61.671,14.656,61.512,14.507,61.368C14.358,61.223,14.168,60.62,14.086,60.026C13.937,58.953,14.132,58.753,15.169,58.919C15.572,58.983,19.3,59.194,22.659,59.343C30.461,59.705,37.803,59.345,45.966,59.417C48.869,59.433,48.869,59.433,49.287,60.492C49.81,61.815,49.809,62.05,49.279,62.561C48.804,63.021,48.327,63.046,47.13,62.677ZZM49.672,57.092C49.604,57.026,46.869,56.898,43.594,56.806C36.645,56.978,30.301,57.125,23.927,56.962C21.554,56.906,19.377,56.788,19.089,56.699C18.366,56.478,17.706,54.897,18.066,54.248C18.298,53.829,18.584,53.767,19.902,53.851C30.263,54.082,36.384,53.923,46.262,54.106C48.846,54.152,50.366,54.283,50.531,54.475C51.057,55.088,51.127,56.325,50.66,56.776C50.206,57.214,49.9,57.312,49.672,57.092ZZM51.012,47.247C42.045,45.634,31.524,47.521,22.505,46.242C22.505,46.143,21.925,45.988,21.217,45.897C20.508,45.806,19.678,45.615,19.371,45.471C18.725,45.169,18.25,44.072,18.386,43.195C18.473,42.634,18.568,42.601,19.611,42.774C20.233,42.877,20.925,42.974,21.149,42.99C21.372,43.006,21.637,43.128,21.737,43.262C31.384,44.102,41.414,43.45,51.179,43.985C51.988,44.031,52.429,44.244,53.009,44.871C53.894,45.828,53.956,46.239,53.298,46.79C52.715,47.278,51.132,47.595,51.012,47.247ZZM53.967,40.813C53.875,40.724,53.031,40.61,52.091,40.56C51.152,40.509,49.408,40.346,48.216,40.196C44.186,39.689,24.323,40.193,21.958,40.581C21.061,40.728,20.974,40.678,20.495,39.726C20.04,38.822,20.028,38.653,20.384,38.135C30.067,36.375,49.835,38.445,54.855,37.571C55.295,37.343,55.5,37.415,56.005,37.975C56.986,39.06,57.132,39.972,56.412,40.51C55.823,40.95,54.304,41.138,53.967,40.813ZZM22.01,34.15C21.514,34.112,20.997,33.912,20.861,33.705C20.265,32.795,20.834,30.524,21.521,31.074C31.265,31.658,39.545,31.214,49.936,31.453C56.349,31.595,57.297,31.726,57.297,32.469C57.297,32.658,57.429,32.855,57.59,32.906C57.793,32.972,57.779,33.223,57.542,33.724C57.201,34.447,57.201,34.447,52.165,34.372C41.909,33.714,32.383,34.865,22.01,34.15ZZM52.959,25.755C52.959,25.658,52.685,25.574,52.349,25.569C50.486,25.539,44.477,25.269,43.198,25.157C42.378,25.086,39.755,24.96,37.369,24.877C32.833,24.72,25.112,24.271,23.947,24.097C23.575,24.041,23.07,23.985,22.826,23.973C22.225,23.944,21.353,22.151,21.689,21.636C22.052,21.081,22.631,21.055,25.84,21.453C27.409,21.648,30.523,21.83,32.759,21.857C34.996,21.885,37.254,21.947,37.775,21.996C39.677,22.173,48.306,22.48,51.807,22.495C53.783,22.504,55.399,22.6,55.399,22.708C55.399,22.816,55.552,22.905,55.738,22.906C56.077,22.908,56.755,24.05,56.755,24.618C56.755,25.252,55.741,25.777,54.367,25.853C53.593,25.897,52.959,25.852,52.959,25.755ZZM49.492,19.526C46.288,19.532,45.341,19.474,42.548,19.099C41.284,18.929,35.658,18.715,27.908,18.541C21.66,18.401,20.965,18.237,20.965,16.901C20.965,15.843,21.619,15.105,22.236,15.466C22.546,15.647,24.777,15.763,28.286,15.78C33.491,15.806,39.684,16.013,41.837,16.235C42.357,16.289,44.248,16.401,46.04,16.486C47.832,16.57,50.031,16.684,50.926,16.738C51.82,16.793,52.772,16.755,53.041,16.654C58.333,16.346,59.497,19.077,56.178,19.622C53.684,20.071,51.665,19.526,49.492,19.526ZZM51.061,14.526C49.144,14.301,44.556,14.126,33.437,13.857C29.485,13.761,25.764,13.666,25.168,13.645C23.449,13.585,22.395,13.04,22.259,12.141C22.074,10.924,22.507,10.779,25.774,10.969C27.379,11.063,32.536,11.197,37.233,11.267C41.931,11.338,46.994,11.457,48.485,11.532C49.977,11.608,52.381,11.697,53.828,11.731C55.274,11.765,56.53,11.862,56.619,11.947C57,12.316,57.01,13.54,56.636,14.056C56.306,14.512,55.917,14.626,54.527,14.674C53.59,14.707,52.031,14.641,51.061,14.526ZZ" style="fill: rgb(3, 3, 3);"/></g></g></g></g></svg>