<svg xmlns:xlink="http://www.w3.org/1999/xlink" width="22.5" xmlns="http://www.w3.org/2000/svg" height="26.5" id="screenshot-b6de7595-666d-8059-8001-7cfefce72938" viewBox="0 0 22.5 26.5" style="-webkit-print-color-adjust: exact;" fill="none" version="1.1"><g id="shape-b6de7595-666d-8059-8001-7cfefce72938" width="52.946312mm" height="53.382656mm" rx="0" ry="0" style="fill: rgb(0, 0, 0);"><g id="shape-b6de7595-666d-8059-8001-7cfefce83d28" rx="0" ry="0" style="fill: rgb(0, 0, 0);"><g id="shape-b6de7595-666d-8059-8001-7cfefcef5db5"><g id="fills-b6de7595-666d-8059-8001-7cfefcef5db5"><path color="#000" overflow="visible" rx="0" ry="0" d="M19,21.65C17.952,24.894,1.618,30.52,0.533,16.108C-0.376,4.022,17.599,1.5,17.599,1.5C17.599,1.5,0.547,14.617,19,21.65ZZ" style="fill: rgb(116, 159, 130); fill-opacity: 1;"/></g></g><g id="shape-b6de7595-666d-8059-8001-7cfefcf18cec"><g id="fills-b6de7595-666d-8059-8001-7cfefcf18cec"><path color="#000" overflow="visible" rx="0" ry="0" d="M15.456,0.137C15.456,0.137,14.079,0.211,13.853,0.34C13.655,0.453,13.325,0.587,13.119,0.637C11.552,1.018,8.171,2.676,8.171,3.064C8.171,3.138,8.091,3.199,7.992,3.199C7.553,3.199,4.458,5.999,3.215,7.52C1.437,9.696,0.819,10.884,0.432,12.874C-2.18,23.909,7.674,27.419,13.217,26.303C16.566,25.77,19.145,24.156,21.488,21.831C23.262,20.929,22.545,18.614,20.566,19.097C19.658,19.346,16.889,19.167,16.33,18.823C16.172,18.725,15.738,18.501,15.367,18.324C14.025,17.683,12.994,16.621,12.331,15.195C10.605,8.153,15.143,5.945,19.405,2.732C19.857,1.092,20.157,-0.481,15.456,0.137ZZM16.468,1.842C16.566,1.84,16.508,1.9,16.337,2.052C16.175,2.195,15.928,2.315,15.788,2.318C15.649,2.321,15.493,2.402,15.442,2.498C15.391,2.595,15.21,2.673,15.038,2.673C14.867,2.673,14.571,2.871,14.38,3.111C7.789,8.858,7.303,20.615,17.198,21.732C17.755,22.039,17.755,22.04,17.273,22.33C17.008,22.489,16.488,22.708,16.117,22.815C15.746,22.923,15.24,23.08,14.993,23.164C13.068,23.697,9.139,24.314,7.286,23.287C7.006,23.122,6.711,22.988,6.631,22.988C4.252,21.609,2.234,18.99,2.073,16.376C1.977,14.599,2.239,13.452,3.14,11.69C4.086,9.84,6.653,7.056,8.981,5.355C10.809,4.019,14.357,2.304,16.112,1.909C16.293,1.868,16.409,1.844,16.468,1.842ZZ" style="isolation: auto; mix-blend-mode: normal; marker: none; fill: rgb(245, 245, 245); fill-opacity: 1;"/></g></g></g></g></svg>